<mxfile host="app.diagrams.net" agent="Mozilla/5.0 (Windows NT 10.0; Win64; x64) AppleWebKit/537.36 (KHTML, like Gecko) Chrome/128.0.0.0 Safari/537.36 OPR/114.0.0.0" version="24.8.3">
  <diagram name="Page-1" id="2YBvvXClWsGukQMizWep">
    <mxGraphModel dx="698" dy="386" grid="1" gridSize="10" guides="1" tooltips="1" connect="1" arrows="1" fold="1" page="1" pageScale="1" pageWidth="850" pageHeight="1100" math="0" shadow="0">
      <root>
        <mxCell id="0" />
        <mxCell id="1" parent="0" />
        <mxCell id="aM9ryv3xv72pqoxQDRHE-1" value="Система аренды" style="shape=umlLifeline;perimeter=lifelinePerimeter;whiteSpace=wrap;html=1;container=0;dropTarget=0;collapsible=0;recursiveResize=0;outlineConnect=0;portConstraint=eastwest;newEdgeStyle={&quot;edgeStyle&quot;:&quot;elbowEdgeStyle&quot;,&quot;elbow&quot;:&quot;vertical&quot;,&quot;curved&quot;:0,&quot;rounded&quot;:0};fontFamily=Times New Roman;" parent="1" vertex="1">
          <mxGeometry x="290" y="210" width="100" height="280" as="geometry" />
        </mxCell>
        <mxCell id="Myq37gHaifwHrUv0UT9n-10" value="" style="endArrow=block;html=1;rounded=0;endFill=1;fontFamily=Times New Roman;" parent="1" edge="1" target="aM9ryv3xv72pqoxQDRHE-2">
          <mxGeometry width="50" height="50" relative="1" as="geometry">
            <mxPoint x="180" y="310" as="sourcePoint" />
            <mxPoint x="330" y="310" as="targetPoint" />
          </mxGeometry>
        </mxCell>
        <mxCell id="Myq37gHaifwHrUv0UT9n-11" value="открыть каталог техники" style="edgeLabel;html=1;align=center;verticalAlign=middle;resizable=0;points=[];fontFamily=Helvetica;labelBackgroundColor=none;fontSize=9;" parent="Myq37gHaifwHrUv0UT9n-10" vertex="1" connectable="0">
          <mxGeometry x="-0.5614" relative="1" as="geometry">
            <mxPoint x="45" y="-10" as="offset" />
          </mxGeometry>
        </mxCell>
        <mxCell id="0d9YOmnHAsoXUXlX9QzM-3" value="" style="group" vertex="1" connectable="0" parent="1">
          <mxGeometry x="490" y="180" width="30" height="310" as="geometry" />
        </mxCell>
        <mxCell id="0d9YOmnHAsoXUXlX9QzM-1" value="Администратор" style="shape=umlActor;verticalLabelPosition=bottom;verticalAlign=top;html=1;outlineConnect=0;fontFamily=Times New Roman;" vertex="1" parent="0d9YOmnHAsoXUXlX9QzM-3">
          <mxGeometry width="30" height="60" as="geometry" />
        </mxCell>
        <mxCell id="0d9YOmnHAsoXUXlX9QzM-2" value="" style="html=1;points=[];perimeter=orthogonalPerimeter;outlineConnect=0;targetShapes=umlLifeline;portConstraint=eastwest;newEdgeStyle={&quot;edgeStyle&quot;:&quot;elbowEdgeStyle&quot;,&quot;elbow&quot;:&quot;vertical&quot;,&quot;curved&quot;:0,&quot;rounded&quot;:0};fontFamily=Times New Roman;" vertex="1" parent="0d9YOmnHAsoXUXlX9QzM-3">
          <mxGeometry x="10" y="100" width="10" height="210" as="geometry" />
        </mxCell>
        <mxCell id="0d9YOmnHAsoXUXlX9QzM-4" value="" style="group" vertex="1" connectable="0" parent="1">
          <mxGeometry x="160" y="180" width="30" height="310" as="geometry" />
        </mxCell>
        <mxCell id="Myq37gHaifwHrUv0UT9n-3" value="Гость" style="shape=umlActor;verticalLabelPosition=bottom;verticalAlign=top;html=1;outlineConnect=0;fontFamily=Times New Roman;" parent="0d9YOmnHAsoXUXlX9QzM-4" vertex="1">
          <mxGeometry width="30" height="60" as="geometry" />
        </mxCell>
        <mxCell id="Myq37gHaifwHrUv0UT9n-9" value="" style="html=1;points=[];perimeter=orthogonalPerimeter;outlineConnect=0;targetShapes=umlLifeline;portConstraint=eastwest;newEdgeStyle={&quot;edgeStyle&quot;:&quot;elbowEdgeStyle&quot;,&quot;elbow&quot;:&quot;vertical&quot;,&quot;curved&quot;:0,&quot;rounded&quot;:0};fontFamily=Times New Roman;" parent="0d9YOmnHAsoXUXlX9QzM-4" vertex="1">
          <mxGeometry x="10" y="100" width="10" height="210" as="geometry" />
        </mxCell>
        <mxCell id="aM9ryv3xv72pqoxQDRHE-2" value="" style="html=1;points=[];perimeter=orthogonalPerimeter;outlineConnect=0;targetShapes=umlLifeline;portConstraint=eastwest;newEdgeStyle={&quot;edgeStyle&quot;:&quot;elbowEdgeStyle&quot;,&quot;elbow&quot;:&quot;vertical&quot;,&quot;curved&quot;:0,&quot;rounded&quot;:0};fontFamily=Times New Roman;" parent="1" vertex="1">
          <mxGeometry x="335" y="280" width="10" height="190" as="geometry" />
        </mxCell>
        <mxCell id="0d9YOmnHAsoXUXlX9QzM-7" value="" style="endArrow=block;html=1;rounded=0;endFill=1;fontFamily=Times New Roman;" edge="1" parent="1">
          <mxGeometry width="50" height="50" relative="1" as="geometry">
            <mxPoint x="180" y="360" as="sourcePoint" />
            <mxPoint x="335" y="360" as="targetPoint" />
          </mxGeometry>
        </mxCell>
        <mxCell id="0d9YOmnHAsoXUXlX9QzM-8" value="&lt;font style=&quot;font-size: 9px;&quot;&gt;выбрать технику и условия аренды&lt;/font&gt;" style="edgeLabel;html=1;align=center;verticalAlign=middle;resizable=0;points=[];fontFamily=Helvetica;labelBackgroundColor=none;fontSize=9;" vertex="1" connectable="0" parent="0d9YOmnHAsoXUXlX9QzM-7">
          <mxGeometry x="-0.5614" relative="1" as="geometry">
            <mxPoint x="45" y="-12" as="offset" />
          </mxGeometry>
        </mxCell>
        <mxCell id="0d9YOmnHAsoXUXlX9QzM-9" value="" style="endArrow=none;dashed=1;html=1;rounded=0;endFill=0;startArrow=open;startFill=0;" edge="1" parent="1">
          <mxGeometry width="50" height="50" relative="1" as="geometry">
            <mxPoint x="180" y="334" as="sourcePoint" />
            <mxPoint x="335" y="334" as="targetPoint" />
          </mxGeometry>
        </mxCell>
        <mxCell id="0d9YOmnHAsoXUXlX9QzM-10" value="показать список техники" style="edgeLabel;html=1;align=center;verticalAlign=middle;resizable=0;points=[];fontSize=9;labelBackgroundColor=none;fontFamily=Helvetica;" vertex="1" connectable="0" parent="0d9YOmnHAsoXUXlX9QzM-9">
          <mxGeometry x="-0.3022" relative="1" as="geometry">
            <mxPoint x="23" y="-10" as="offset" />
          </mxGeometry>
        </mxCell>
        <mxCell id="0d9YOmnHAsoXUXlX9QzM-11" value="" style="endArrow=block;html=1;rounded=0;endFill=1;fontFamily=Times New Roman;" edge="1" parent="1">
          <mxGeometry width="50" height="50" relative="1" as="geometry">
            <mxPoint x="180" y="380" as="sourcePoint" />
            <mxPoint x="335" y="380" as="targetPoint" />
          </mxGeometry>
        </mxCell>
        <mxCell id="0d9YOmnHAsoXUXlX9QzM-12" value="&lt;font style=&quot;font-size: 9px;&quot;&gt;отправить заявку с данными&lt;/font&gt;" style="edgeLabel;html=1;align=center;verticalAlign=middle;resizable=0;points=[];fontFamily=Helvetica;labelBackgroundColor=none;fontSize=9;" vertex="1" connectable="0" parent="0d9YOmnHAsoXUXlX9QzM-11">
          <mxGeometry x="-0.5614" relative="1" as="geometry">
            <mxPoint x="45" y="-9" as="offset" />
          </mxGeometry>
        </mxCell>
        <mxCell id="0d9YOmnHAsoXUXlX9QzM-16" value="" style="endArrow=block;html=1;rounded=0;endFill=1;fontFamily=Times New Roman;" edge="1" parent="1" source="aM9ryv3xv72pqoxQDRHE-2">
          <mxGeometry width="50" height="50" relative="1" as="geometry">
            <mxPoint x="500" y="400" as="sourcePoint" />
            <mxPoint x="500" y="400" as="targetPoint" />
          </mxGeometry>
        </mxCell>
        <mxCell id="0d9YOmnHAsoXUXlX9QzM-17" value="уведомление о новой заявке" style="edgeLabel;html=1;align=center;verticalAlign=middle;resizable=0;points=[];fontFamily=Helvetica;labelBackgroundColor=none;fontSize=9;" vertex="1" connectable="0" parent="0d9YOmnHAsoXUXlX9QzM-16">
          <mxGeometry x="-0.5614" relative="1" as="geometry">
            <mxPoint x="41" y="-9" as="offset" />
          </mxGeometry>
        </mxCell>
        <mxCell id="0d9YOmnHAsoXUXlX9QzM-18" value="" style="endArrow=block;html=1;rounded=0;endFill=1;fontFamily=Times New Roman;" edge="1" parent="1">
          <mxGeometry width="50" height="50" relative="1" as="geometry">
            <mxPoint x="500" y="420" as="sourcePoint" />
            <mxPoint x="345" y="420" as="targetPoint" />
          </mxGeometry>
        </mxCell>
        <mxCell id="0d9YOmnHAsoXUXlX9QzM-19" value="проверить заявку" style="edgeLabel;html=1;align=center;verticalAlign=middle;resizable=0;points=[];fontFamily=Helvetica;labelBackgroundColor=none;fontSize=9;" vertex="1" connectable="0" parent="0d9YOmnHAsoXUXlX9QzM-18">
          <mxGeometry x="-0.5614" relative="1" as="geometry">
            <mxPoint x="-41" y="-9" as="offset" />
          </mxGeometry>
        </mxCell>
        <mxCell id="0d9YOmnHAsoXUXlX9QzM-20" value="" style="endArrow=block;html=1;rounded=0;endFill=1;fontFamily=Times New Roman;" edge="1" parent="1">
          <mxGeometry width="50" height="50" relative="1" as="geometry">
            <mxPoint x="500" y="440" as="sourcePoint" />
            <mxPoint x="345" y="440" as="targetPoint" />
          </mxGeometry>
        </mxCell>
        <mxCell id="0d9YOmnHAsoXUXlX9QzM-21" value="ответить на заявку(Да/Нет)" style="edgeLabel;html=1;align=center;verticalAlign=middle;resizable=0;points=[];fontFamily=Helvetica;labelBackgroundColor=none;fontSize=9;" vertex="1" connectable="0" parent="0d9YOmnHAsoXUXlX9QzM-20">
          <mxGeometry x="-0.5614" relative="1" as="geometry">
            <mxPoint x="-41" y="-9" as="offset" />
          </mxGeometry>
        </mxCell>
        <mxCell id="0d9YOmnHAsoXUXlX9QzM-22" value="" style="endArrow=block;html=1;rounded=0;endFill=1;fontFamily=Times New Roman;exitX=0.5;exitY=0.947;exitDx=0;exitDy=0;exitPerimeter=0;" edge="1" parent="1" source="aM9ryv3xv72pqoxQDRHE-2" target="Myq37gHaifwHrUv0UT9n-9">
          <mxGeometry width="50" height="50" relative="1" as="geometry">
            <mxPoint x="330" y="460" as="sourcePoint" />
            <mxPoint x="335" y="460" as="targetPoint" />
          </mxGeometry>
        </mxCell>
        <mxCell id="0d9YOmnHAsoXUXlX9QzM-23" value="уведомление с результатом заявки" style="edgeLabel;html=1;align=center;verticalAlign=middle;resizable=0;points=[];fontFamily=Helvetica;labelBackgroundColor=none;fontSize=9;" vertex="1" connectable="0" parent="0d9YOmnHAsoXUXlX9QzM-22">
          <mxGeometry x="-0.5614" relative="1" as="geometry">
            <mxPoint x="-45" y="-9" as="offset" />
          </mxGeometry>
        </mxCell>
      </root>
    </mxGraphModel>
  </diagram>
</mxfile>
